<?xml version="1.0" encoding="utf-8"?>
<!-- Generator: Adobe Illustrator 16.0.0, SVG Export Plug-In . SVG Version: 6.00 Build 0)  -->
<!DOCTYPE svg PUBLIC "-//W3C//DTD SVG 1.1//EN" "http://www.w3.org/Graphics/SVG/1.1/DTD/svg11.dtd">
<svg version="1.1" id="Livello_1" xmlns="http://www.w3.org/2000/svg" xmlns:xlink="http://www.w3.org/1999/xlink" x="0px" y="0px"
	 width="48.977px" height="60px" viewBox="0 0 48.977 60" enable-background="new 0 0 48.977 60" xml:space="preserve">
<g>
	<path fill="#FFFFFF" d="M8.587,0"/>
	<g>
		<path id="XMLID_22_" fill="#FFFFFF" d="M5.363,22.84L5.363,22.84c-2.601,2.6-3.213,6.238-1.366,8.088l14.927,14.928h9.453
			L5.363,22.84z"/>
		<g id="XMLID_16_">
			<path id="XMLID_21_" fill="#FFFFFF" d="M3.121,0L3.121,0c-4.161,4.16-4.161,10.969,0,15.129l30.725,30.727h15.13L3.121,0z"/>
		</g>
		<g>
			<g id="XMLID_9_">
				<g id="XMLID_13_">
					<path fill="#FFFFFF" d="M2.929,50.689L2.929,50.689c1.118,0,2.034,0.951,2.034,2.117v7.021H2.929V50.689z"/>
				</g>
				<path id="XMLID_11_" fill="#FFFFFF" d="M8.98,56.893c0.601-0.263,1.063-0.641,1.391-1.131c0.327-0.49,0.489-1.076,0.489-1.755
					c0-0.678-0.161-1.267-0.484-1.761C10.053,51.749,9.594,51.367,9,51.098c-0.596-0.268-1.297-0.404-2.107-0.404H6.051v1.724h0.727
					c0.634,0,1.117,0.14,1.447,0.412s0.495,0.666,0.495,1.18c0,0.505-0.165,0.896-0.495,1.173c-0.33,0.278-0.813,0.42-1.447,0.42
					H6.051v1.682h0.843h0.104l1.762,2.545h2.271L8.98,56.893z"/>
			</g>
			<g id="XMLID_2_">
				<path id="XMLID_8_" fill="#FFFFFF" d="M13.195,50.729h2.109v9.116h-2.109V50.729z"/>
				<path id="XMLID_7_" fill="#FFFFFF" d="M25.766,59.845l-0.016-5.472l-2.684,4.508h-0.951l-2.671-4.391v5.354h-1.98v-9.117h1.745
					l3.414,5.666l3.361-5.666h1.73l0.026,9.117L25.766,59.845L25.766,59.845z"/>
				<path id="XMLID_5_" fill="#FFFFFF" d="M31.761,59.389c-0.76-0.408-1.354-0.971-1.784-1.688s-0.644-1.521-0.644-2.415
					c0-0.896,0.214-1.7,0.644-2.417s1.024-1.279,1.784-1.688c0.763-0.408,1.613-0.611,2.562-0.611c0.945,0,1.797,0.203,2.551,0.611
					c0.756,0.407,1.353,0.971,1.785,1.688s0.65,1.521,0.65,2.417c0,0.894-0.218,1.698-0.65,2.415
					c-0.434,0.717-1.029,1.279-1.785,1.688C36.119,59.798,35.268,60,34.322,60S32.524,59.798,31.761,59.389z M35.781,57.832
					c0.434-0.248,0.772-0.592,1.021-1.035s0.371-0.947,0.371-1.513c0-0.564-0.123-1.068-0.371-1.511
					c-0.248-0.443-0.588-0.789-1.021-1.037c-0.437-0.246-0.92-0.369-1.459-0.369s-1.025,0.123-1.458,0.369
					c-0.436,0.248-0.776,0.593-1.022,1.037c-0.247,0.441-0.371,0.945-0.371,1.511s0.124,1.069,0.371,1.513
					c0.248,0.441,0.588,0.787,1.022,1.035c0.433,0.248,0.921,0.371,1.458,0.371S35.345,58.08,35.781,57.832z"/>
				<path id="XMLID_4_" fill="#FFFFFF" d="M46.709,59.845l-1.76-2.54h-0.104h-1.836v2.54H40.9v-9.116h3.944
					c0.808,0,1.511,0.133,2.105,0.4c0.596,0.27,1.051,0.652,1.373,1.146c0.322,0.496,0.481,1.082,0.481,1.76
					c0,0.679-0.161,1.262-0.487,1.752c-0.326,0.488-0.789,0.865-1.388,1.127l2.046,2.93L46.709,59.845L46.709,59.845z
					 M46.176,52.855c-0.332-0.271-0.813-0.41-1.446-0.41h-1.722v3.18h1.722c0.635,0,1.114-0.141,1.446-0.418
					c0.328-0.277,0.494-0.67,0.494-1.174C46.67,53.521,46.504,53.129,46.176,52.855z"/>
			</g>
		</g>
		<path fill="#FFFFFF" d="M32.812,13.695c0.001,2.902-3.094,4.534-4.692,5.839l8.787,8.788c4.203-3.573,12.07-7.458,12.068-15.53
			C48.97,5.728,43.246,0,36.182,0c0,0-17.82,0-27.598,0l8.949,8.949c4.567,0,10.532,0,10.532,0
			C30.688,8.95,32.811,11.075,32.812,13.695z"/>
	</g>
</g>
</svg>
