<svg xmlns="http://www.w3.org/2000/svg" viewBox="0 0 297.6 148.8">
    <linearGradient id="a" x1="628.7288" x2="688.0909" y1="1318.5083" y2="1377.8724" gradientUnits="userSpaceOnUse" gradientTransform="translate(-584 -1284.4)">
        <stop offset="0" stop-color="#F5F6F6"></stop>
        <stop offset="1" stop-color="#414650"></stop>
    </linearGradient>
    <linearGradient id="b" x1="633.4172" x2="684.3102" y1="1323.2163" y2="1374.1094" gradientUnits="userSpaceOnUse" gradientTransform="translate(-584 -1284.4)">
        <stop offset="0" stop-color="#414650"></stop>
        <stop offset="1" stop-color="#F5F6F6"></stop>
    </linearGradient>

    <g class="header__logo__visual__name">
        <path fill="#414650" d="M148.8 0h148.8v148.8H148.8V0z"></path>
        <path fill="#FFFFFF" d="M181.7 47.3h-1.1v3.5h-3.4v1h3.4v3.5h1.1v-3.5h3.4v-1h-3.4v-3.5zm11.1-18.8h-2.4V39h2.4V28.5zm-8.3 6.5l-5.2-6.5h-2.1V39h2.4v-6.5l5.2 6.5h2.1V28.5h-2.4V35zm27.7 2.1c-1.6 0-2.9-.4-3.9-1.3l-1.1 2c1.4 1 3 1.4 4.8 1.6 2.8 0 4.8-1.2 4.8-3.5 0-2.5-2.2-2.8-4.5-3.1-2-.3-2.5-.5-2.5-1.1 0-.7.6-1.2 2.1-1.2 1.4 0 2.4.5 2.7 1.3l1.9-1c-.7-1.4-2.2-2.4-4.6-2.4-2.7 0-4.5 1.3-4.5 3.5 0 2.4 2.2 2.7 4.4 3 2.2.3 2.7.4 2.7 1 0 .8-.9 1.2-2.3 1.2zm36.8-4.6l5.2 6.5h2.1V28.5h-2.4V35l-5.2-6.5h-2.1V39h2.4v-6.5zm-27.1 0l3 4h.2l3-4V39h2.4V28.5h-2l-3.5 4.7-3.5-4.7h-2V39h2.4v-6.5zm14.1 4.7h4.9l.8 1.8h2.6v-.1l-4.6-10.4h-2.5l-4.5 10.4v.1h2.6l.7-1.8zm2.5-6l1.6 3.9h-3.2l1.6-3.9zm-33.6 5.6l-6.1-.1v-1.9h3.8v-2.2h-3.8v-1.9h6v-2.2h-8.4V39h8.5v-2.2zM252 56.5h2.4v-3.7h4v-2.2h-4v-2.4h5.1V46H252v10.5zm9.7 0h2.4v-3.7h4v-2.2h-4v-2.4h5.1V46h-7.5v10.5zm5.2-28V35l-5.2-6.5h-2.1V39h2.4v-6.5l5.2 6.5h2.1V28.5h-2.4zm-22.3 17.3c-3.4 0-5.6 2.4-5.6 5.4s2.2 5.4 5.6 5.4c3.4 0 5.6-2.4 5.6-5.4 0-2.9-2.2-5.4-5.6-5.4zm0 8.6c-2 0-3.2-1.4-3.2-3.2 0-1.8 1.2-3.2 3.2-3.2s3.2 1.4 3.2 3.2c0 1.8-1.2 3.2-3.2 3.2zm-35.7-4.2c-2-.3-2.5-.5-2.5-1.1 0-.7.6-1.2 2.1-1.2 1.4 0 2.4.5 2.7 1.3l2-1c-.7-1.4-2.2-2.4-4.6-2.4-2.7 0-4.5 1.3-4.5 3.5 0 2.4 2.2 2.7 4.4 3 2.2.3 2.7.4 2.7 1 0 .8-.9 1.2-2.3 1.2-1.6 0-2.9-.4-3.9-1.3l-1.1 2c1.4 1 3 1.5 4.7 1.6 2.8 0 4.8-1.2 4.8-3.5 0-2.5-2.2-2.8-4.5-3.1zm25.6-.2h-4.8v-4h-2.4v10.5h2.4v-4.3h4.8v4.3h2.4V46h-2.4v4zm-35.1 6.5h2.4V46h-2.4v10.5zm-4.3-5.4c.8-.4 1.3-1.1 1.3-2.2 0-1.6-1.2-2.9-3-2.9h-5.9v10.5h6.5c1.7 0 3-1.1 3-2.8 0-1.4-.8-2.3-1.9-2.6zm-5.2-3h2.9c.7 0 1.2.4 1.2 1.1 0 .7-.4 1.1-1.2 1.1v.1h-2.9v-2.3zm3.5 6.4v-.1H190v-2.3h3.4c.8 0 1.3.5 1.3 1.2s-.5 1.2-1.3 1.2zm27.2 0c-2 0-3.1-1.4-3.1-3.2 0-1.8 1-3.2 3-3.2 1.3 0 2.3.6 2.7 1.6l2-1.2c-.7-1.6-2.5-2.7-4.7-2.7-3.3 0-5.4 2.4-5.4 5.4s2.2 5.5 5.5 5.5c2.2 0 3.9-1.1 4.7-2.7l-2-1.1c-.4 1-1.4 1.6-2.7 1.6z"></path>
    </g>
    <g>
        <path fill="#FFFFFF" d="M0 0h148.8v148.8H0V0z"></path>
        <g>
            <rect fill="#d9dadc" width="1" height="148.8"></rect>
            <rect fill="#d9dadc" height="1" width="148.8" y="147.8"></rect>
        </g>
        <g class="header__logo__visual">
            <path fill="url(#a)" d="M74.4 21.8c-23.1 0-42 18.8-42 42 0 23.1 18.8 42 42 42 23.1 0 42-18.8 42-42s-18.8-42-42-42z"></path>
            <path fill="url(#b)" d="M74.4 27.9c-19.8 0-35.9 16.1-35.9 35.9 0 19.8 16.1 35.9 35.9 35.9 19.8 0 35.9-16.1 35.9-35.9 0-19.8-16.1-35.9-35.9-35.9z"></path>
            <path fill="#414650" d="M74.4 30.9c-18.1 0-32.9 14.7-32.9 32.9 0 18.1 14.7 32.9 32.9 32.9 18.1 0 32.9-14.7 32.9-32.9 0-18.1-14.8-32.9-32.9-32.9z"></path>
            <path fill="#FFF" d="M71 42.2s-4.7-1-7.6 6.3c11.2 11.8 3.7 35.2 1.6 36.9 8.4-2.2 19.1-40.5 6-43.2zM58.6 54.9s-6.7-1.6-10.8 5.9c12-3.4 18.7 8.3 16.6 18 5.4-8.9 2.5-22-5.8-23.9zm26.5-2.1c-11.8 8.3-6.9 28.6-3.3 31.4-5-24.1 11.2-28.9 19.2-26.1-2.3-6-10.4-9.2-15.9-5.3zM74.4 30.9c18.1 0 32.9 14.7 32.9 32.9 0 18.1-14.7 32.9-32.9 32.9-18.1 0-32.9-14.7-32.9-32.9 0-18.1 14.8-32.9 32.9-32.9m0-.5C56 30.4 41 45.3 41 63.8c0 18.4 15 33.4 33.4 33.4s33.4-15 33.4-33.4c0-18.5-14.9-33.4-33.4-33.4zm0-2.5c19.8 0 35.9 16.1 35.9 35.9 0 19.8-16.1 35.9-35.9 35.9-19.8 0-35.9-16.1-35.9-35.9 0-19.8 16.1-35.9 35.9-35.9m0-.6C54.3 27.3 38 43.7 38 63.8s16.3 36.4 36.4 36.4c20.1 0 36.4-16.3 36.4-36.4 0-20.1-16.3-36.5-36.4-36.5z"></path>
            <path fill="#3F434E" d="M74.4 21.8c23.1 0 42 18.8 42 42 0 23.1-18.8 42-42 42-23.1 0-42-18.8-42-42s18.9-42 42-42m0-.5c-23.5 0-42.5 19-42.5 42.5s19 42.5 42.5 42.5 42.5-19 42.5-42.5-19-42.5-42.5-42.5z"></path>
        </g>
        <path fill="#414650" class="navigation__state--sticky__hidden header__logo__visual__slogan" d="M54.1 120.5c-2.3 0-3.7 1.6-3.7 3.6s1.4 3.6 3.7 3.6 3.7-1.6 3.7-3.6-1.5-3.6-3.7-3.6zm0 6.2c-1.5 0-2.6-1.1-2.6-2.6s1-2.6 2.6-2.6 2.6 1.1 2.6 2.6-1.1 2.6-2.6 2.6zm19.1.9h1.1v-6.9h-1.1v6.9zm29.8-5.9c-.6-.8-1.5-1.2-2.6-1.2-2.1 0-3.6 1.6-3.6 3.6s1.5 3.6 3.6 3.6c1.1 0 2-.4 2.6-1.2v1.1h1.1v-9.8l-1.1-.1v4zm0 3.8c-.6.8-1.4 1.2-2.4 1.2-1.7 0-2.7-1.1-2.7-2.6s1-2.6 2.7-2.6c1 0 1.8.5 2.4 1.3v2.7zm-62.5 1.2c-2.4 0-4-1.8-4-4s1.6-4 4-4c1.5 0 2.8.8 3.3 2l1-.5c-.7-1.4-2.2-2.5-4.3-2.5-3 0-5 2.2-5 5s2.1 5 5 5.1c2.1 0 3.7-1.1 4.4-2.5l-1-.5c-.6 1.1-1.8 1.9-3.4 1.9zm6.6.9h1.1v-10.1h-1.1v10.1zm17.9-2.2c-.7 1-1.5 1.4-2.4 1.4-1.1 0-1.8-.7-1.8-1.8v-4.2h-1.1v4.2c0 1.7 1 2.8 2.7 2.8 1.1 0 1.9-.5 2.6-1.3v1.1h1.1v-6.9l-1.1.1v4.6zm29.2-7.7c-.4 0-.8.4-.8.8s.4.8.8.8c.5 0 .8-.4.8-.8 0-.5-.4-.8-.8-.8zm-.6 9.9h1.1v-6.9h-1.1v6.9zm-19.8-9.9c-.4 0-.8.4-.8.8s.3.8.8.8.8-.4.8-.8c0-.5-.4-.8-.8-.8zm36 2.8c-2.2 0-3.5 1.7-3.5 3.6 0 2.1 1.4 3.6 3.8 3.6 1.2 0 2-.4 2.8-1l-.5-.9c-.6.6-1.4.9-2.3.9-1.6 0-2.6-.8-2.8-2.1h5.9c.2-2.5-1.2-4.1-3.4-4.1zm-2.5 3.2c.2-1.3 1.1-2.2 2.5-2.2s2.3.8 2.4 2.2h-4.9zm-26.7-3.3c-1.1 0-1.9.5-2.6 1.3v-1.1h-1.2v6.9h1.1v-4.6c.7-.9 1.5-1.4 2.4-1.4 1.2 0 1.9.7 1.9 1.8v4.2h1.1v-4.2c0-1.7-1-2.7-2.7-2.9zm8 3.3c-1.4-.2-2.1-.3-2.1-1 0-.6.6-1.1 1.8-1.1s1.9.4 2.2 1.1l.9-.4c-.4-1-1.3-1.7-3-1.7s-2.9.9-2.9 2.2c0 1.4 1.3 1.6 2.9 1.8 1.6.2 2.2.3 2.2 1s-.7 1.1-2.1 1.1c-1.1 0-2.1-.3-2.8-.9l-.5.9c.9.7 1.9 1 3.3 1 2 0 3.2-.8 3.2-2.1 0-1.5-1.4-1.7-3.1-1.9z"></path>
    </g>
</svg>